<svg width="1720" height="240" viewBox="0 0 1720 240" fill="none" xmlns="http://www.w3.org/2000/svg">
<g clip-path="url(#clip0)">
<path d="M593.104 240H652.414V180H593.104V240Z" fill="#393939"/>
<path d="M593.104 60L652.414 60V0L593.104 0V60Z" fill="#222020"/>
<path d="M593.104 120L652.414 120V60L593.104 60V120Z" fill="#262525"/>
<path d="M593.104 180H652.414V120H593.104V180Z" fill="#322F2F"/>
<path d="M415.172 0H355.862V60H415.172V0Z" fill="#393939"/>
<path d="M415.172 180H355.862V240H415.172V180Z" fill="#262525"/>
<path d="M415.172 60H355.862V120H415.172V60Z" fill="#222020"/>
<path d="M415.172 120H355.862V180H415.172V120Z" fill="#322F2F"/>
<path d="M711.724 0H652.414V60H711.724V0Z" fill="#393939"/>
<path d="M711.724 180H652.414V240H711.724V180Z" fill="#262525"/>
<path d="M711.724 60H652.414V120H711.724V60Z" fill="#222020"/>
<path d="M711.724 120H652.414V180H711.724V120Z" fill="#322F2F"/>
<path d="M593.103 0H533.793V60H593.103V0Z" fill="#393939"/>
<path d="M593.103 180H533.793V240H593.103V180Z" fill="#262525"/>
<path d="M593.103 60H533.793V120H593.103V60Z" fill="#222020"/>
<path d="M593.103 120H533.793V180H593.103V120Z" fill="#322F2F"/>
<path d="M1482.76 0H1423.45V60H1482.76V0Z" fill="#393939"/>
<path d="M1482.76 180H1423.45V240H1482.76V180Z" fill="#262525"/>
<path d="M1482.76 60H1423.45V120H1482.76V60Z" fill="#222020"/>
<path d="M1482.76 120H1423.45V180H1482.76V120Z" fill="#322F2F"/>
<path d="M1245.52 0H1186.21V60H1245.52V0Z" fill="#393939"/>
<path d="M1245.52 180H1186.21V240H1245.52V180Z" fill="#262525"/>
<path d="M1245.52 60H1186.21V120H1245.52V60Z" fill="#222020"/>
<path d="M1245.52 120H1186.21V180H1245.52V120Z" fill="#322F2F"/>
<path d="M1720 0H1660.69V60H1720V0Z" fill="#393939"/>
<path d="M1720 180H1660.69V240H1720V180Z" fill="#262525"/>
<path d="M1720 60H1660.69V120H1720V60Z" fill="#222020"/>
<path d="M1720 120H1660.69V180H1720V120Z" fill="#322F2F"/>
<path d="M533.793 120H474.483V180H533.793V120Z" fill="#222020"/>
<path d="M533.793 180H474.483V240H533.793V180Z" fill="#393939"/>
<path d="M533.793 0H474.483V60H533.793V0Z" fill="#322F2F"/>
<path d="M533.793 60H474.483V120H533.793V60Z" fill="#262525"/>
<path d="M948.97 120L1008.28 120V60L948.97 60V120Z" fill="#222020"/>
<path d="M948.97 60L1008.28 60V0L948.97 0V60Z" fill="#393939"/>
<path d="M948.97 240H1008.28V180H948.97V240Z" fill="#322F2F"/>
<path d="M948.97 180H1008.28V120H948.97V180Z" fill="#262525"/>
<path d="M830.344 120H771.034V180H830.344V120Z" fill="#222020"/>
<path d="M830.344 180H771.034V240H830.344V180Z" fill="#393939"/>
<path d="M830.344 0H771.034V60H830.344V0Z" fill="#322F2F"/>
<path d="M830.344 60H771.034V120H830.344V60Z" fill="#262525"/>
<path d="M1660.69 120H1601.38V180H1660.69V120Z" fill="#222020"/>
<path d="M1660.69 180H1601.38V240H1660.69V180Z" fill="#393939"/>
<path d="M1660.69 0H1601.38V60H1660.69V0Z" fill="#322F2F"/>
<path d="M1660.69 60H1601.38V120H1660.69V60Z" fill="#262525"/>
<path d="M1186.21 120H1126.9V180H1186.21V120Z" fill="#222020"/>
<path d="M1186.21 180H1126.9V240H1186.21V180Z" fill="#393939"/>
<path d="M1186.21 0H1126.9V60H1186.21V0Z" fill="#322F2F"/>
<path d="M1186.21 60H1126.9V120H1186.21V60Z" fill="#262525"/>
<path d="M1423.45 120H1364.14V180H1423.45V120Z" fill="#222020"/>
<path d="M1423.45 180H1364.14V240H1423.45V180Z" fill="#393939"/>
<path d="M1423.45 0H1364.14V60H1423.45V0Z" fill="#322F2F"/>
<path d="M1423.45 60H1364.14V120H1423.45V60Z" fill="#262525"/>
<path d="M355.862 0H296.552V60H355.862V0Z" fill="#262525"/>
<path d="M355.862 120H296.552V180H355.862V120Z" fill="#393939"/>
<path d="M355.862 60H296.552V120H355.862V60Z" fill="#222020"/>
<path d="M355.862 180H296.552V240H355.862V180Z" fill="#322F2F"/>
<path d="M1482.76 240H1542.07V180H1482.76V240Z" fill="#262525"/>
<path d="M1482.76 120L1542.07 120V60L1482.76 60V120Z" fill="#393939"/>
<path d="M1482.76 180H1542.07V120H1482.76V180Z" fill="#222020"/>
<path d="M1482.76 60L1542.07 60V0L1482.76 0V60Z" fill="#322F2F"/>
<path d="M889.656 240H948.966V180H889.656V240Z" fill="#262525"/>
<path d="M889.656 120L948.966 120V60L889.656 60V120Z" fill="#393939"/>
<path d="M889.656 180H948.966V120H889.656V180Z" fill="#222020"/>
<path d="M889.656 60L948.966 60V0L889.656 0V60Z" fill="#322F2F"/>
<path d="M177.931 0H118.621V60H177.931V0Z" fill="#262525"/>
<path d="M177.931 120H118.621V180H177.931V120Z" fill="#393939"/>
<path d="M177.931 60H118.621V120H177.931V60Z" fill="#222020"/>
<path d="M177.931 180H118.621V240H177.931V180Z" fill="#322F2F"/>
<path d="M1245.52 240H1304.83V180H1245.52V240Z" fill="#262525"/>
<path d="M1245.52 120L1304.83 120V60L1245.52 60V120Z" fill="#393939"/>
<path d="M1245.52 180H1304.83V120H1245.52V180Z" fill="#222020"/>
<path d="M1245.52 60L1304.83 60V0L1245.52 0V60Z" fill="#322F2F"/>
<path d="M118.621 0H59.3103V60H118.621V0Z" fill="#322F2F"/>
<path d="M118.621 60H59.3103V120H118.621V60Z" fill="#393939"/>
<path d="M118.621 180H59.3103V240H118.621V180Z" fill="#222020"/>
<path d="M118.621 120H59.3103V180H118.621V120Z" fill="#262525"/>
<path d="M474.482 0H415.172V60H474.482V0Z" fill="#322F2F"/>
<path d="M474.482 60H415.172V120H474.482V60Z" fill="#393939"/>
<path d="M474.482 180H415.172V240H474.482V180Z" fill="#222020"/>
<path d="M474.482 120H415.172V180H474.482V120Z" fill="#262525"/>
<path d="M1067.59 240H1126.9V180H1067.59V240Z" fill="#322F2F"/>
<path d="M1067.59 180H1126.9V120H1067.59V180Z" fill="#393939"/>
<path d="M1067.59 60L1126.9 60V0L1067.59 0V60Z" fill="#222020"/>
<path d="M1067.59 120L1126.9 120V60L1067.59 60V120Z" fill="#262525"/>
<path d="M1304.83 240H1364.14V180H1304.83V240Z" fill="#322F2F"/>
<path d="M1304.83 180H1364.14V120H1304.83V180Z" fill="#393939"/>
<path d="M1304.83 60L1364.14 60V0L1304.83 0V60Z" fill="#222020"/>
<path d="M1304.83 120L1364.14 120V60L1304.83 60V120Z" fill="#262525"/>
<path d="M59.3103 0H0V60H59.3103V0Z" fill="#393939"/>
<path d="M59.3103 180H0V240H59.3103V180Z" fill="#222020"/>
<path d="M59.3103 120H0V180H59.3103V120Z" fill="#262525"/>
<path d="M59.3103 60H0V120H59.3103V60Z" fill="#322F2F"/>
<path d="M889.655 0H830.345V60H889.655V0Z" fill="#322F2F"/>
<path d="M889.655 60H830.345V120H889.655V60Z" fill="#393939"/>
<path d="M889.655 180H830.345V240H889.655V180Z" fill="#222020"/>
<path d="M889.655 120H830.345V180H889.655V120Z" fill="#262525"/>
<path d="M1008.28 240H1067.59V180H1008.28V240Z" fill="#393939"/>
<path d="M1008.28 60L1067.59 60V0L1008.28 0V60Z" fill="#222020"/>
<path d="M1008.28 120L1067.59 120V60L1008.28 60V120Z" fill="#262525"/>
<path d="M1008.28 180H1067.59V120H1008.28V180Z" fill="#322F2F"/>
<path d="M1601.38 0H1542.07V60H1601.38V0Z" fill="#393939"/>
<path d="M1601.38 180H1542.07V240H1601.38V180Z" fill="#222020"/>
<path d="M1601.38 120H1542.07V180H1601.38V120Z" fill="#262525"/>
<path d="M1601.38 60H1542.07V120H1601.38V60Z" fill="#322F2F"/>
<path d="M237.242 240H296.552V180H237.242V240Z" fill="#393939"/>
<path d="M237.242 60L296.552 60V0L237.242 0V60Z" fill="#222020"/>
<path d="M237.242 120L296.552 120V60L237.242 60V120Z" fill="#262525"/>
<path d="M237.242 180H296.552V120H237.242V180Z" fill="#322F2F"/>
<path d="M237.241 0H177.931V60H237.241V0Z" fill="#393939"/>
<path d="M237.241 180H177.931V240H237.241V180Z" fill="#222020"/>
<path d="M237.241 120H177.931V180H237.241V120Z" fill="#262525"/>
<path d="M237.241 60H177.931V120H237.241V60Z" fill="#322F2F"/>
<path d="M771.034 0H711.724V60H771.034V0Z" fill="#393939"/>
<path d="M771.034 180H711.724V240H771.034V180Z" fill="#222020"/>
<path d="M771.034 120H711.724V180H771.034V120Z" fill="#262525"/>
<path d="M771.034 60H711.724V120H771.034V60Z" fill="#322F2F"/>
</g>
<defs>
<clipPath id="clip0">
<rect width="1720" height="240" fill="white"/>
</clipPath>
</defs>
</svg>
